<svg width="45" height="45" viewBox="0 0 45 45" fill="none" xmlns="http://www.w3.org/2000/svg">
<path d="M42.1875 14.0625H33.75V9.84375C33.75 5.95969 26.1956 2.8125 16.875 2.8125C7.55438 2.8125 0 5.95969 0 9.84375V37.9688C0 41.8528 7.55438 45 16.875 45C26.1956 45 33.75 41.8528 33.75 37.9688V33.75H42.1875C42.9334 33.75 43.6488 33.4537 44.1762 32.9262C44.7037 32.3988 45 31.6834 45 30.9375V16.875C45 16.1291 44.7037 15.4137 44.1762 14.8863C43.6488 14.3588 42.9334 14.0625 42.1875 14.0625ZM7.73719 11.3541C6.11156 10.8197 5.12719 10.2459 4.59844 9.84375C5.12719 9.44156 6.11156 8.86781 7.73719 8.33344C10.2825 7.49531 13.5281 7.03125 16.875 7.03125C20.2219 7.03125 23.4675 7.4925 26.0128 8.33344C27.6384 8.86781 28.6228 9.44156 29.1516 9.84375C28.6228 10.2459 27.6384 10.8197 26.0128 11.3541C23.4675 12.1922 20.2219 12.6562 16.875 12.6562C13.5281 12.6562 10.2825 12.195 7.73719 11.3541ZM39.375 28.125H33.75V19.6875H39.375V28.125Z" fill="#8CA775"/>
</svg>
