<svg width="70" height="70" viewBox="0 0 70 70" fill="none" xmlns="http://www.w3.org/2000/svg">
<path d="M56.6549 13.3628C53.8162 10.4961 50.4391 8.21844 46.7175 6.66078C42.9959 5.10313 39.0032 4.29616 34.9688 4.28623C30.9344 4.2763 26.9378 5.0636 23.2086 6.60292C19.4794 8.14224 16.0911 10.4032 13.2383 13.256C10.3855 16.1088 8.12454 19.4971 6.58522 23.2263C5.0459 26.9555 4.2586 30.9521 4.26853 34.9865C4.27846 39.0209 5.08543 43.0136 6.64308 46.7352C8.20074 50.4568 10.4784 53.8339 13.3451 56.6726C16.1838 59.5394 19.561 61.817 23.2826 63.3747C27.0042 64.9323 30.9968 65.7393 35.0312 65.7492C39.0657 65.7592 43.0623 64.9719 46.7915 63.4325C50.5207 61.8932 53.909 59.6322 56.7618 56.7795C59.6145 53.9267 61.8755 50.5384 63.4148 46.8092C64.9542 43.08 65.7415 39.0834 65.7315 35.049C65.7216 31.0145 64.9146 27.0219 63.357 23.3003C61.7993 19.5787 59.5217 16.2015 56.6549 13.3628ZM8.75003 35.0177C8.749 32.6945 9.05704 30.3814 9.66604 28.1394C10.6696 30.2996 12.127 32.1658 13.1182 34.382C14.3992 37.2312 17.8391 36.441 19.358 38.9375C20.7061 41.1537 19.2664 43.9564 20.2754 46.2752C21.0082 47.9582 22.7364 48.3259 23.9285 49.5564C25.1467 50.7978 25.1207 52.4986 25.3067 54.1173C25.5163 56.0193 25.8567 57.9045 26.3252 59.7597C26.3252 59.7734 26.3252 59.7884 26.3362 59.8021C16.1055 56.2091 8.75003 46.457 8.75003 35.0177ZM35 61.2677C33.534 61.2673 32.0707 61.1448 30.625 60.9013C30.6401 60.5308 30.6469 60.1849 30.6838 59.9443C31.016 57.7705 32.1043 55.6445 33.5727 54.0175C35.0233 52.4125 37.0112 51.3269 38.2362 49.5058C39.4366 47.7285 39.7961 45.3359 39.3012 43.2591C38.5725 40.1912 34.4039 39.1671 32.1563 37.5033C30.8643 36.5462 29.7145 35.0669 28.0178 34.9466C27.2358 34.8919 26.5809 35.0601 25.8057 34.8605C25.0948 34.6759 24.5369 34.2931 23.7795 34.3929C22.3645 34.5789 21.4717 36.091 19.9514 35.8859C18.509 35.6931 17.0229 34.0046 16.6948 32.6306C16.2737 30.8642 17.6709 30.2914 19.168 30.1341C19.7928 30.0685 20.4942 29.9974 21.0944 30.2271C21.8846 30.5197 22.2578 31.2935 22.9674 31.6845C24.2977 32.4146 24.567 31.2484 24.3633 30.0671C24.0584 28.298 23.703 27.5775 25.2807 26.3593C26.3744 25.5199 27.3096 24.9128 27.1346 23.4048C27.0307 22.5189 26.5453 22.1183 26.9979 21.2365C27.341 20.5652 28.283 19.9595 28.8969 19.5589C30.4815 18.5253 35.685 18.6019 33.559 15.7089C32.9342 14.8599 31.7817 13.3423 30.6879 13.1345C29.3207 12.8761 28.7137 14.4019 27.7608 15.0746C26.7764 15.7705 24.8596 16.5607 23.8739 15.4847C22.5477 14.0369 24.753 13.5625 25.241 12.5507C25.4666 12.0791 25.241 11.4242 24.861 10.8076C25.3541 10.5998 25.8554 10.407 26.3649 10.2293C26.6842 10.4651 27.063 10.6071 27.4586 10.6394C28.3733 10.6996 29.236 10.2046 30.0344 10.8281C30.9203 11.5117 31.5588 12.3757 32.7346 12.589C33.8721 12.7955 35.0766 12.1324 35.3582 10.9675C35.5291 10.2593 35.3582 9.51148 35.1942 8.78003C40.3075 8.80946 45.2994 10.3408 49.5496 13.1837C49.2762 13.0798 48.9494 13.0921 48.5461 13.2794C47.7162 13.665 46.5405 14.6466 46.4434 15.6201C46.3326 16.7248 47.9623 16.8806 48.7362 16.8806C49.8983 16.8806 51.0754 16.3611 50.7008 15.0185C50.5381 14.4361 50.3166 13.8304 49.9598 13.464C50.8176 14.0592 51.6394 14.7047 52.4207 15.3972C52.4084 15.4095 52.3961 15.4205 52.3838 15.4341C51.5963 16.2544 50.6817 16.9039 50.143 17.9019C49.7629 18.6046 49.335 18.9382 48.5653 19.1201C48.1414 19.2199 47.6575 19.2568 47.302 19.5412C46.3121 20.3205 46.8754 22.1935 47.8133 22.7554C48.9987 23.465 50.7569 23.1314 51.651 22.1183C52.3496 21.3253 52.7612 19.9486 54.0176 19.95C54.5708 19.9488 55.1022 20.1654 55.4969 20.5529C56.0164 21.0916 55.9139 21.5947 56.0246 22.2673C56.2201 23.4623 57.2742 22.8142 57.9155 22.2113C58.3829 23.0431 58.8046 23.8998 59.1787 24.7775C58.4733 25.7933 57.9127 26.9007 56.216 25.7168C55.2002 25.0072 54.5754 23.9777 53.2998 23.6578C52.1856 23.3843 51.044 23.6687 49.9434 23.8587C48.6924 24.0761 47.209 24.1718 46.2602 25.1193C45.3428 26.0326 44.8575 27.2548 43.8813 28.1722C41.9932 29.9496 41.1961 31.8896 42.4184 34.4025C43.5942 36.8183 46.0537 38.1294 48.7075 37.9572C51.3147 37.7836 54.0231 36.2714 53.9479 40.0599C53.9205 41.4011 54.2008 42.3294 54.6123 43.575C54.9938 44.7234 54.9678 45.8363 55.0553 47.0216C55.1385 48.4097 55.3555 49.7864 55.7034 51.1328C53.2528 54.2879 50.1135 56.8413 46.5254 58.5978C42.9372 60.3543 38.9951 61.2676 35 61.2677Z" fill="#30261C"/>
</svg>
