<svg width="35" height="35" viewBox="0 0 35 35" fill="none" xmlns="http://www.w3.org/2000/svg">
<path d="M29.7588 15.1331C29.0125 14.3871 28.0023 13.9653 26.9471 13.9591H23.6834V13.596C23.6792 13.3092 23.5634 13.0352 23.3606 12.8324C23.1577 12.6295 22.8838 12.5137 22.5969 12.5096H5.19754C4.90925 12.5096 4.63276 12.624 4.42878 12.8277C4.2248 13.0314 4.11001 13.3077 4.10962 13.596V25.1956C4.10962 27.0223 4.83529 28.7742 6.12698 30.0659C6.76656 30.7055 7.52586 31.2129 8.36152 31.559C9.19717 31.9051 10.0928 32.0833 10.9973 32.0833H16.7971C17.6989 32.0788 18.5909 31.8965 19.4221 31.5466C20.2612 31.2109 21.0237 30.709 21.664 30.0713C22.3043 29.4335 22.8091 28.6729 23.1482 27.8352V27.7331H26.9034C27.9585 27.7255 28.9682 27.3029 29.7142 26.5569C30.4603 25.8108 30.8828 24.8011 30.8905 23.746V17.9462C30.8971 17.4258 30.8005 16.9092 30.6063 16.4264C30.412 15.9435 30.124 15.5039 29.7588 15.1331ZM28.7584 23.746C28.7542 24.2254 28.5614 24.6838 28.2217 25.0221C28.0567 25.1936 27.8584 25.3296 27.639 25.4219C27.4196 25.5142 27.1837 25.5607 26.9457 25.5587H23.6688C23.6763 25.4378 23.6763 25.3165 23.6688 25.1956V16.1335H26.9325C27.4119 16.1377 27.8703 16.3301 28.2092 16.6692C28.548 17.0082 28.74 17.4669 28.7438 17.9462L28.7584 23.746ZM8.66254 11.0439C8.44788 11.0434 8.23819 10.9793 8.05986 10.8598C7.88153 10.7403 7.74254 10.5707 7.66038 10.3724C7.57821 10.1741 7.55656 9.95592 7.59813 9.74533C7.6397 9.53473 7.74264 9.34114 7.89399 9.18893C7.98282 9.1029 8.05241 8.99902 8.09816 8.88413C8.12355 8.76442 8.12355 8.64072 8.09816 8.52101C8.12544 8.39708 8.12544 8.26869 8.09816 8.14476C8.05241 8.02988 7.98282 7.926 7.89399 7.83997C7.31157 7.24705 6.97949 6.45286 6.96649 5.62184C6.97874 4.78638 7.31066 3.98736 7.89399 3.38913C7.98598 3.25453 8.10703 3.14233 8.24822 3.06081C8.3894 2.97929 8.5471 2.93055 8.70965 2.91818C8.87221 2.90581 9.03547 2.93013 9.18736 2.98934C9.33925 3.04855 9.47589 3.14115 9.58719 3.26028C9.69848 3.37941 9.78157 3.52203 9.83033 3.67759C9.87909 3.83316 9.89226 3.99769 9.86887 4.15903C9.84548 4.32037 9.78613 4.47439 9.69521 4.60971C9.60429 4.74502 9.48412 4.85818 9.34358 4.9408C9.25545 5.02655 9.18638 5.1299 9.14087 5.24413C9.12035 5.3692 9.12035 5.49678 9.14087 5.62184C9.11934 5.74144 9.11934 5.86391 9.14087 5.98351C9.19434 6.10212 9.26726 6.20906 9.35962 6.30434C9.65304 6.59344 9.88513 6.93876 10.042 7.31964C10.1988 7.70051 10.2773 8.10912 10.2725 8.52101C10.2781 8.9349 10.1986 9.34552 10.0388 9.72736C9.87895 10.1092 9.64232 10.4541 9.34358 10.7406C9.16055 10.9205 8.91869 11.0282 8.66254 11.0439ZM13.3744 11.0439C13.0887 11.0457 12.8134 10.937 12.6059 10.7406C12.4023 10.5366 12.288 10.2602 12.288 9.97205C12.288 9.68388 12.4023 9.40747 12.6059 9.20351C12.6985 9.11426 12.7723 9.00724 12.8226 8.88884C12.873 8.77044 12.8989 8.64311 12.8989 8.51445C12.8989 8.38579 12.873 8.25845 12.8226 8.14005C12.7723 8.02166 12.6985 7.91463 12.6059 7.82538C12.3182 7.53492 12.0916 7.18981 11.9394 6.81038C11.7773 6.43254 11.6937 6.02569 11.6937 5.61455C11.6937 5.20341 11.7773 4.79656 11.9394 4.41872C12.0998 4.03518 12.3302 3.68518 12.6205 3.38913C12.7125 3.25484 12.8336 3.14294 12.9747 3.06167C13.1158 2.9804 13.2734 2.93184 13.4357 2.91957C13.5981 2.90731 13.7611 2.93164 13.9129 2.99079C14.0646 3.04994 14.2011 3.14239 14.3123 3.26132C14.4235 3.38025 14.5066 3.52263 14.5555 3.67796C14.6043 3.83329 14.6177 3.99761 14.5946 4.1588C14.5715 4.31998 14.5125 4.47392 14.4219 4.60927C14.3314 4.74461 14.2116 4.85791 14.0715 4.9408C13.9828 5.02641 13.9133 5.12977 13.8673 5.24413C13.8468 5.3692 13.8468 5.49678 13.8673 5.62184C13.8458 5.74144 13.8458 5.86391 13.8673 5.98351C13.9218 6.10212 13.9947 6.20906 14.0861 6.30434C14.6713 6.89127 15 7.68631 15 8.51518C15 9.34404 14.6713 10.1391 14.0861 10.726C13.8967 10.9169 13.643 11.0303 13.3744 11.0439ZM18.4348 11.0439C18.2202 11.0434 18.0105 10.9793 17.8322 10.8598C17.6538 10.7403 17.5148 10.5707 17.4327 10.3724C17.3505 10.1741 17.3288 9.95592 17.3704 9.74533C17.412 9.53473 17.5149 9.34114 17.6663 9.18893C17.7551 9.1029 17.8247 8.99902 17.8705 8.88413C17.8958 8.76442 17.8958 8.64072 17.8705 8.52101C17.8977 8.39708 17.8977 8.26869 17.8705 8.14476C17.8247 8.02988 17.7551 7.926 17.6663 7.83997C17.0787 7.25051 16.7457 6.45412 16.7388 5.62184C16.7338 5.20622 16.8134 4.79393 16.9729 4.41009C17.1323 4.02624 17.3683 3.67887 17.6663 3.38913C17.873 3.19975 18.1448 3.09745 18.425 3.10356C18.7053 3.10967 18.9723 3.22373 19.1706 3.42194C19.3688 3.62016 19.4828 3.88724 19.4889 4.16749C19.4951 4.44775 19.3928 4.71955 19.2034 4.92622C19.1038 5.0108 19.0287 5.1206 18.9861 5.24413C18.9644 5.3642 18.9644 5.48719 18.9861 5.60726C18.9644 5.72733 18.9644 5.85031 18.9861 5.97038C19.0344 6.09132 19.1092 6.19993 19.2048 6.2883C19.5002 6.57615 19.7335 6.92147 19.8903 7.30297C20.047 7.68447 20.124 8.09405 20.1163 8.50643C20.1192 8.91913 20.0405 9.32893 19.8844 9.71101C19.7187 10.0867 19.4882 10.4302 19.2034 10.726C18.9973 10.9264 18.7223 11.0402 18.4348 11.0439Z" fill="#749663"/>
</svg>
