<svg width="105" height="105" viewBox="0 0 105 105" fill="none" xmlns="http://www.w3.org/2000/svg">
<path d="M37.058 30.674L42 66.5C41.9809 67.4245 42.149 68.3433 42.494 69.2012C42.839 70.0591 43.3539 70.8384 44.0078 71.4922C44.6616 72.1461 45.4409 72.661 46.2988 73.006C47.1567 73.351 48.0755 73.5191 49 73.5H56C56.9245 73.5191 57.8433 73.351 58.7012 73.006C59.5591 72.661 60.3384 72.1461 60.9922 71.4922C61.6461 70.8384 62.161 70.0591 62.506 69.2012C62.851 68.3433 63.0191 67.4245 63 66.5L67.942 30.674C67.942 21 52.5 21 52.5 21C52.5 21 37.037 21 37.058 30.674ZM24.5 35C14 35 14 42 14 42L21 70H31.5C32.9401 70.0027 34.3249 69.4457 35.3619 68.4465C36.399 67.4473 37.0072 66.0842 37.058 64.645L31.5 35H24.5ZM10.5 52.5C7.7504 52.4741 5.09615 53.5067 3.087 55.384C1.32734 56.9875 0.226996 59.1882 0 61.558L0 77H6.174C7.15597 77.0949 8.14695 76.9853 9.08444 76.678C10.0219 76.3708 10.8856 75.8726 11.6209 75.2149C12.3562 74.5572 12.9472 73.7542 13.3567 72.8567C13.7662 71.9591 13.9852 70.9864 14 70L10.5 52.5ZM80.5 35C91 35 91 42 91 42L84 70H73.5C72.0599 70.0027 70.6751 69.4457 69.6381 68.4465C68.601 67.4473 67.9929 66.0842 67.942 64.645L73.5 35H80.5ZM94.5 52.5C97.2496 52.4741 99.9038 53.5067 101.913 55.384C103.673 56.9875 104.773 59.1882 105 61.558V77H98.826C97.844 77.0949 96.853 76.9853 95.9156 76.678C94.9781 76.3708 94.1144 75.8726 93.3791 75.2149C92.6438 74.5572 92.0528 73.7542 91.6433 72.8567C91.2338 71.9591 91.0148 70.9864 91 70L94.5 52.5Z" fill="#30261C"/>
</svg>
