<svg width="78" height="78" viewBox="0 0 78 78" fill="none" xmlns="http://www.w3.org/2000/svg">
<path d="M40.625 22.75C40.625 19.1425 43.5175 16.25 47.125 16.25H58.5C62.075 16.25 65 19.175 65 22.75V29.77C61.23 31.1025 58.5 34.6775 58.5 38.9025V45.5H40.625V22.75ZM19.5 38.87V45.5H37.375V22.75C37.375 19.1425 34.4825 16.25 30.875 16.25H19.5C15.925 16.25 13 19.175 13 22.75V29.7375C16.77 31.07 19.5 34.6775 19.5 38.87ZM67.145 32.5975C63.96 33.1175 61.75 36.14 61.75 39.39V48.75H16.25V39C16.25 37.2761 15.5652 35.6228 14.3462 34.4038C13.1272 33.1848 11.4739 32.5 9.75 32.5C8.02609 32.5 6.37279 33.1848 5.15381 34.4038C3.93482 35.6228 3.25 37.2761 3.25 39V55.25C3.25 58.825 6.175 61.75 9.75 61.75V68.25H16.25V61.75H61.75V68.25H68.25V61.75C71.825 61.75 74.75 58.825 74.75 55.25V39C74.75 35.0675 71.2075 31.915 67.145 32.5975Z" fill="#30261C"/>
</svg>
