<svg width="81" height="81" viewBox="0 0 81 81" fill="none" xmlns="http://www.w3.org/2000/svg">
<path d="M0 9.58496C4.73175 18.7312 4.87688 27.2733 10.0474 44.685C16.308 62.7108 39.42 63.9258 41.1311 63.9596C42.6836 66.4098 46.2375 69.7106 54.3814 71.4183L55.2859 67.1253C48.2591 65.6538 45.6874 62.9437 44.8031 61.4553L44.7863 61.4756C45.0799 59.8421 49.9264 43.3282 40.3211 29.9126C24.2392 12.0926 0 9.58496 0 9.58496ZM81 12.42C67.8443 14.4821 66.5111 9.31496 42.2786 22.8588C46.2276 27.4725 49.077 32.9229 50.6118 38.7987C52.1465 44.6744 52.3264 50.8221 51.138 56.7776C63.7031 51.7623 68.5732 43.3586 70.0583 34.9548C70.0583 34.9548 74.3445 19.0383 81 12.42ZM42.2786 22.8588L42.2719 22.8521V22.8656L42.2786 22.8588ZM8.92013 17.6175C8.92013 17.6175 27.2194 22.4302 37.7528 56.5751C27.8134 53.5747 23.5676 43.7636 22.1265 39.1331H22.1467C19.5162 31.0085 14.9833 23.6313 8.92013 17.6175Z" fill="#30261C"/>
</svg>
