<svg width="26" height="28" viewBox="0 0 26 28" fill="none" xmlns="http://www.w3.org/2000/svg">
<path fill-rule="evenodd" clip-rule="evenodd" d="M13.0131 0C13.2703 0 13.5169 0.102907 13.6987 0.286082C13.8806 0.469257 13.9827 0.717696 13.9827 0.976744V3.82884L16.2063 1.58884C16.3901 1.41631 16.6332 1.32238 16.8844 1.32684C17.1356 1.33131 17.3752 1.43382 17.5529 1.61277C17.7305 1.79173 17.8323 2.03316 17.8367 2.2862C17.8412 2.53925 17.7479 2.78414 17.5767 2.9693L13.9827 6.58977V12.3083L18.8979 9.44967L20.2139 4.50344C20.2469 4.37954 20.3037 4.26338 20.3812 4.1616C20.4587 4.05982 20.5553 3.97442 20.6656 3.91026C20.7759 3.84611 20.8976 3.80446 21.0238 3.78769C21.1501 3.77093 21.2784 3.77938 21.4014 3.81256C21.5244 3.84574 21.6397 3.903 21.7407 3.98107C21.8417 4.05914 21.9265 4.15649 21.9902 4.26756C22.0539 4.37864 22.0952 4.50127 22.1119 4.62844C22.1285 4.75561 22.1201 4.88484 22.0872 5.00874L21.2727 8.06921L23.7238 6.64316C23.9464 6.51568 24.21 6.48206 24.4571 6.54964C24.7042 6.61722 24.9147 6.78051 25.0428 7.00388C25.1708 7.22725 25.2059 7.49256 25.1405 7.74192C25.075 7.99128 24.9143 8.20444 24.6934 8.33488L22.2436 9.75963L25.2817 10.5801C25.5301 10.6473 25.7418 10.8111 25.8703 11.0356C25.9988 11.26 26.0335 11.5267 25.9668 11.7769C25.9001 12.0272 25.7375 12.2405 25.5147 12.3699C25.2919 12.4994 25.0272 12.5343 24.7788 12.4672L19.8688 11.1414L14.9523 14L19.8675 16.8586L24.7775 15.5328C25.026 15.4658 25.2909 15.501 25.5137 15.6307C25.7365 15.7604 25.899 15.974 25.9655 16.2244C26.0321 16.4748 25.9971 16.7416 25.8684 16.966C25.7396 17.1905 25.5276 17.3542 25.2791 17.4212L22.2423 18.2404L24.6934 19.6664C24.8046 19.7301 24.9022 19.8153 24.9805 19.9171C25.0588 20.0189 25.1164 20.1353 25.1499 20.2596C25.1834 20.3839 25.1922 20.5137 25.1757 20.6414C25.1592 20.7692 25.1178 20.8923 25.0539 21.0039C24.99 21.1155 24.9048 21.2132 24.8032 21.2914C24.7016 21.3697 24.5857 21.4269 24.462 21.4598C24.3384 21.4927 24.2096 21.5007 24.0829 21.4833C23.9562 21.4658 23.8342 21.4233 23.7238 21.3581L21.2727 19.9321L22.0872 22.9913C22.1201 23.1152 22.1285 23.2444 22.1119 23.3716C22.0952 23.4987 22.0539 23.6214 21.9902 23.7324C21.9265 23.8435 21.8417 23.9409 21.7407 24.0189C21.6397 24.097 21.5244 24.1543 21.4014 24.1874C21.2784 24.2206 21.1501 24.2291 21.0238 24.2123C20.8976 24.1955 20.7759 24.1539 20.6656 24.0897C20.5553 24.0256 20.4587 23.9402 20.3812 23.8384C20.3037 23.7366 20.2469 23.6205 20.2139 23.4966L18.8979 18.5503L13.9827 15.693V21.4102L17.5767 25.0307C17.6693 25.1208 17.7432 25.2285 17.7941 25.3476C17.845 25.4668 17.8718 25.5949 17.8729 25.7246C17.8741 25.8543 17.8496 25.9829 17.801 26.103C17.7523 26.2231 17.6803 26.3322 17.5893 26.4239C17.4983 26.5157 17.3901 26.5882 17.271 26.6374C17.1518 26.6866 17.0242 26.7114 16.8954 26.7103C16.7667 26.7092 16.6394 26.6823 16.5211 26.6312C16.4028 26.5801 16.2958 26.5057 16.2063 26.4125L13.9827 24.1725V27.0233C13.9827 27.2823 13.8806 27.5307 13.6987 27.7139C13.5169 27.8971 13.2703 28 13.0131 28C12.756 28 12.5094 27.8971 12.3275 27.7139C12.1457 27.5307 12.0435 27.2823 12.0435 27.0233V24.1712L9.81994 26.4112C9.63614 26.5837 9.39304 26.6776 9.14185 26.6732C8.89066 26.6687 8.651 26.5662 8.47335 26.3872C8.29571 26.2083 8.19395 25.9668 8.18952 25.7138C8.18508 25.4608 8.27832 25.2159 8.44959 25.0307L12.0435 21.4102V15.6917L7.12837 18.5503L5.81231 23.4966C5.77937 23.6205 5.72253 23.7366 5.64504 23.8384C5.56754 23.9402 5.4709 24.0256 5.36064 24.0897C5.25037 24.1539 5.12865 24.1955 5.00241 24.2123C4.87617 24.2291 4.74789 24.2206 4.62489 24.1874C4.50189 24.1543 4.38658 24.097 4.28555 24.0189C4.18452 23.9409 4.09974 23.8435 4.03605 23.7324C3.97237 23.6214 3.93102 23.4987 3.91438 23.3716C3.89774 23.2444 3.90613 23.1152 3.93906 22.9913L4.75352 19.9308L2.3024 21.3581C2.07953 21.4877 1.81472 21.5227 1.56622 21.4555C1.31771 21.3884 1.10587 21.2245 0.977293 21C0.848718 20.7755 0.813941 20.5087 0.880613 20.2584C0.947285 20.008 1.10994 19.7946 1.33281 19.6651L3.78393 18.2404L0.745885 17.4199C0.619639 17.3898 0.500686 17.3344 0.396071 17.2571C0.291457 17.1798 0.20331 17.0821 0.136852 16.9698C0.0703935 16.8576 0.0269763 16.733 0.00917218 16.6035C-0.00863195 16.4741 -0.000460942 16.3423 0.0332013 16.2161C0.0668636 16.0899 0.125332 15.9717 0.205144 15.8687C0.284955 15.7656 0.384485 15.6798 0.497839 15.6162C0.611192 15.5526 0.736062 15.5126 0.865052 15.4985C0.994042 15.4844 1.12453 15.4965 1.24878 15.5341L6.15878 16.8586L11.0739 14L6.15878 11.1414L1.24878 12.4672C1.12569 12.5003 0.997328 12.5088 0.87101 12.492C0.744691 12.4752 0.622894 12.4335 0.512571 12.3693C0.402249 12.3051 0.305562 12.2196 0.228031 12.1177C0.1505 12.0159 0.0936442 11.8996 0.0607086 11.7756C0.0277731 11.6516 0.0194032 11.5223 0.0360769 11.3951C0.0527506 11.2678 0.0941413 11.1451 0.157886 11.034C0.22163 10.9229 0.30648 10.8255 0.407591 10.7473C0.508702 10.6692 0.624094 10.612 0.747178 10.5788L3.78393 9.75963L1.33281 8.33488C1.22246 8.27075 1.12573 8.18535 1.04814 8.08356C0.970551 7.98176 0.913626 7.86557 0.880613 7.74161C0.8476 7.61766 0.839147 7.48837 0.855735 7.36112C0.872324 7.23387 0.913629 7.11117 0.977293 7C1.04096 6.88883 1.12573 6.79139 1.22678 6.71323C1.32783 6.63507 1.44317 6.57772 1.56622 6.54447C1.81472 6.4773 2.07953 6.51234 2.3024 6.64186L4.75223 8.06921L3.93777 5.01005C3.87126 4.75963 3.90621 4.49286 4.03495 4.26841C4.16369 4.04396 4.37566 3.88022 4.62424 3.81321C4.87282 3.7462 5.13764 3.78142 5.36045 3.9111C5.58325 4.04079 5.74579 4.25433 5.81231 4.50474L7.12707 9.45098L12.0435 12.307V6.58977L8.44959 2.9693C8.27832 2.78414 8.18508 2.53925 8.18952 2.2862C8.19395 2.03316 8.29571 1.79173 8.47335 1.61277C8.651 1.43382 8.89066 1.33131 9.14185 1.32684C9.39304 1.32238 9.63614 1.41631 9.81994 1.58884L12.0435 3.82884V0.976744C12.0435 0.717696 12.1457 0.469257 12.3275 0.286082C12.5094 0.102907 12.756 0 13.0131 0Z" fill="#BEDAB0"/>
</svg>
